# xmcd CD database file
#
# Track frame offsets:
#	150
#	28415
#	42691
#	62440
#	84682
#	111867
#	135187
#	155810
#	172618
#	191818
#	207859
#
# Disc length: 2960 seconds
#
# Revision: 0
# Processed by: cddbd v1.4PL0 Copyright (c) Steve Scherf et al.
# Submitted via: CDex 1.50beta10
#
DISCID=960b8e0b
DTITLE=Cowboy Nation - Cowgirl a-go-go
DYEAR=2002
DGENRE=Country
TTITLE0=Dollar A Day
TTITLE1=Spooky
TTITLE2=Rebel
TTITLE3=All I Had To Offer
TTITLE4=Girl Why Don't You
TTITLE5=Good Old Days
TTITLE6=Full Fathom 5
TTITLE7=Cowgirl a-go-go
TTITLE8=When No One's Around
TTITLE9=Paniolo
TTITLE10=Last Ride Home
EXTD=YEAR: 2002
EXTT0=
EXTT1=
EXTT2=
EXTT3=
EXTT4=
EXTT5=
EXTT6=
EXTT7=
EXTT8=
EXTT9=
EXTT10=
PLAYORDER=
